Music_Route53:
	channel_count 4
	channel 1, Music_Route53_Ch1
	channel 2, Music_Route53_Ch2
	channel 3, Music_Route53_Ch3
	channel 4, Music_Route53_Ch4

Music_Route53_Ch1:
	tempo 154
	volume 7
	pitch_offset -1
	duty_cycle 1
	note_type 12, 8, 1
	octave 3
	note D_, 2
	note D_, 1
	note D_, 1
	note D_, 2
	note D_, 1
	note D_, 1
	note D_, 2
	note D_, 5
	note D_, 1
	note D#, 2
	note D#, 1
	note D#, 1
	note D#, 2
	note D#, 1
	note D#, 1
	note D#, 2
	note D#, 2
	volume_envelope 2, -4
	note D#, 4
	octave 2
	note A_, 4
	octave 3
	note C_, 4
	note D_, 6
	note D#, 1
	note D_, 1
	note C_, 4
	octave 2
	note A#, 4
	note A_, 8
.mainloop:
	volume_envelope 8, 1
	octave 3
	note F_, 2
	note F_, 1
	note F_, 1
	note F_, 2
	note F_, 1
	note F_, 1
	note G_, 2
	note G_, 4
	note F_, 1
	note G_, 1
	note A_, 1
	note F_, 1
	note C_, 1
	octave 2
	note A_, 1
	octave 3
	note F_, 1
	note C_, 1
	octave 2
	note A_, 1
	note F_, 1
	volume_envelope 9, 4
	octave 3
	note D_, 4
	note C_, 2
	octave 2
	note A#, 2
	octave 3
	note C_, 4
	octave 2
	note G#, 4
	note A#, 3
	octave 3
	note G_, 3
	note A_, 2
	volume_envelope 11, 1
	note A#, 1
	note F_, 1
	note C_, 1
	note A#, 1
	note F_, 1
	note C_, 1
	note A_, 1
	note G_, 1
	volume_envelope 9, 5
	note A_, 8
	volume_envelope 10, 2
	note D_, 2
	note D#, 2
	volume_envelope 9, 1
	note F_, 1
	note D_, 1
	octave 2
	note A#, 1
	octave 3
	note F_, 1
	volume_envelope 10, 3
	note G_, 4
	octave 2
	note A#, 2
	volume_envelope 8, 1
	octave 3
	note D_, 1
	note F_, 1
	note A#, 1
	note F_, 1
	note D_, 1
	octave 4
	note D_, 1
	octave 3
	note A#, 1
	note F_, 1
	volume_envelope 10, 2
	octave 4
	note C_, 2
	octave 3
	note A#, 4
	note D#, 2
	note D#, 1
	note G_, 1
	note A#, 1
	volume_envelope 8, 1
	note C_, 1
	note D#, 1
	volume_envelope 10, 3
	note A#, 3
	volume_envelope 8, 2
	note G_, 2
	note D#, 4
	octave 4
	note D#, 4
	octave 3
	note D#, 2
	note D#, 1
	note D#, 1
	note D#, 2
	note D_, 1
	note C_, 1
	volume_envelope 7, 7
	note D_, 6
	duty_cycle 2
	volume_envelope 9, 1
	note A#, 1
	octave 4
	note C_, 1
	volume_envelope 10, 3
	note D_, 3
	octave 3
	note G_, 3
	octave 4
	note C_, 1
	octave 3
	note A#, 1
	note A_, 2
	note G_, 2
	note A_, 2
	note F_, 2
	volume_envelope 9, 1
	octave 3
	note G_, 1
	note D#, 1
	octave 2
	note A#, 1
	octave 3
	note G_, 1
	note D#, 1
	octave 2
	note A#, 1
	octave 3
	note G_, 1
	note F_, 1
	volume_envelope 10, 3
	note G_, 6
	volume_envelope 9, 1
	note G_, 1
	note F_, 1
	note G_, 1
	note D#, 1
	note C_, 1
	note G_, 1
	note D#, 1
	note C_, 1
	note F_, 1
	note C_, 1
	volume_envelope 9, 2
	note G_, 2
	note A_, 2
	note A#, 2
	octave 4
	note C_, 2
	octave 3
	note A#, 2
	note F_, 2
	note A#, 2
	note F_, 2
	note D_, 1
	note F_, 1
	note A_, 1
	note G_, 1
	note F_, 2
	note D#, 2
	volume_envelope 9, 1
	note D_, 1
	octave 2
	note A#, 1
	note G_, 1
	octave 3
	note D_, 1
	octave 2
	note A#, 1
	note G_, 1
	octave 3
	note D_, 1
	note D#, 1
	note F_, 2
	note F_, 2
	note G_, 2
	note A_, 2
	note G_, 1
	note D#, 1
	octave 2
	note A#, 1
	octave 3
	note G_, 1
	note D#, 1
	octave 2
	note A#, 1
	octave 3
	note G_, 1
	note A_, 1
	note A#, 2
	note D#, 2
	note G_, 2
	note A#, 2
	note A#, 1
	note F_, 1
	note D_, 1
	note A#, 1
	note F_, 1
	note D_, 1
	note A#, 1
	note F_, 1
	note G_, 1
	note D#, 1
	note C_, 1
	note G_, 1
	note D#, 1
	note C_, 1
	note G_, 1
	note D#, 1
	duty_cycle 1
	volume_envelope 11, 3
	note C_, 6
	volume_envelope 9, 1
	note C_, 1
	note C_, 1
	note C_, 2
	note C_, 2
	note A_, 2
	octave 4
	note C_, 2
	sound_jump .mainloop

Music_Route53_Ch2:
	duty_cycle 1
	note_type 6, 9, 1
	octave 2
	note F_, 4
	note F_, 2
	note F_, 2
	note F_, 4
	note A#, 2
	note A#, 2
	note F_, 4
	note F_, 8
	note A#, 2
	note A_, 2
	note G_, 4
	note G_, 2
	note G_, 2
	duty_cycle 2
	volume_envelope 7, 2
	octave 5
	note C_, 2
	note D_, 2
	note D#, 2
	note F_, 2
	note G_, 1
	note A_, 1
	note G_, 1
	note A_, 1
	note G_, 1
	note A_, 1
	note G_, 1
	note A_, 1
	volume_envelope 10, 4
	note G_, 8
	duty_cycle 1
	octave 3
	note F_, 6
	note G#, 1
	note A_, 9
	note G_, 12
	note F_, 2
	note D#, 2
	volume_envelope 10, 7
	note F_, 8
	duty_cycle 2
	volume_envelope 4, -1
	octave 5
	note D#, 2
	volume_envelope 8, 1
	note F_, 2
	note D#, 2
	note C_, 2
	octave 4
	note A_, 2
	note F_, 2
	note C_, 2
	octave 3
	note A_, 2
	volume_envelope 9, 3
	note F_, 8
.mainloop:
	duty_cycle 3
	note_type 12, 13, 1
	octave 1
	note A#, 2
	volume_envelope 10, 1
	note A#, 1
	note A#, 1
	volume_envelope 13, 1
	note A#, 2
	note F_, 1
	note A#, 1
	octave 2
	note C_, 2
	note C_, 4
	octave 1
	note A#, 1
	octave 2
	note C_, 1
	note D_, 3
	octave 1
	note F_, 3
	note A_, 2
	note G_, 2
	note G_, 2
	octave 2
	note G_, 1
	note D_, 1
	octave 1
	note A#, 1
	note G_, 1
	note G#, 2
	volume_envelope 10, 1
	note G#, 1
	note G#, 1
	volume_envelope 13, 1
	note G#, 2
	note G_, 1
	note F_, 1
	note D#, 2
	note D#, 4
	note D_, 1
	note D#, 1
	note F_, 2
	octave 2
	note F_, 4
	note C_, 2
	volume_envelope 13, 4
	octave 1
	note F_, 6
	volume_envelope 13, 1
	note G_, 1
	note A_, 1
	octave 1
	note A#, 2
	volume_envelope 10, 1
	note A#, 1
	note A#, 1
	volume_envelope 13, 1
	note A#, 2
	note F_, 1
	note A#, 1
	octave 2
	note C_, 2
	note C_, 4
	octave 1
	note A#, 1
	note A_, 1
	note G_, 3
	note G_, 2
	note F_, 1
	note D#, 1
	note D_, 1
	note D#, 2
	note D#, 2
	note F_, 1
	note G_, 1
	note A_, 1
	note A#, 1
	octave 2
	note C_, 2
	note C_, 1
	note D#, 1
	note G_, 2
	octave 1
	note G_, 2
	note F_, 2
	octave 3
	note F_, 2
	note A_, 2
	note C_, 2
	octave 1
	note A#, 2
	octave 2
	note F_, 1
	note F_, 1
	note F_, 2
	octave 1
	note F_, 1
	note A_, 1
	note A#, 2
	note F_, 2
	note A#, 2
	note A_, 2
	volume_envelope 11, 3
	note G_, 3
	octave 2
	note D_, 3
	volume_envelope 13, 1
	note G_, 2
	volume_envelope 12, 4
	note D_, 2
	octave 1
	note A_, 2
	octave 2
	note D_, 2
	octave 1
	note A_, 1
	note A#, 1
	octave 2
	note C_, 3
	octave 1
	note G_, 3
	octave 2
	note C_, 2
	note D#, 2
	note G_, 2
	note D#, 2
	note C_, 2
	volume_envelope 13, 1
	octave 1
	note F_, 2
	octave 2
	note C_, 4
	note A_, 1
	note A_, 1
	volume_envelope 12, 2
	note C_, 2
	octave 1
	note F_, 2
	octave 2
	note F_, 2
	octave 1
	note A_, 2
	volume_envelope 13, 3
	note A#, 6
	volume_envelope 13, 1
	note A#, 1
	note A#, 1
	note A#, 2
	note A#, 2
	volume_envelope 12, 2
	note A_, 4
	volume_envelope 13, 1
	note G_, 2
	note G_, 4
	note G_, 1
	note G_, 1
	note G_, 2
	note G_, 2
	volume_envelope 13, 2
	octave 2
	note D_, 2
	note F_, 2
	volume_envelope 13, 3
	note D#, 6
	note D#, 1
	note F_, 1
	note G_, 2
	note D#, 2
	note A#, 2
	octave 1
	note D#, 2
	note F_, 6
	volume_envelope 13, 1
	note F_, 1
	note F_, 1
	note F_, 2
	note F_, 2
	volume_envelope 12, 3
	octave 2
	note C_, 4
	note F_, 6
	volume_envelope 13, 1
	note F_, 1
	note F_, 1
	note F_, 2
	note F_, 2
	octave 1
	note F_, 2
	note A_, 2
	sound_jump .mainloop

Music_Route53_Ch3:
	staccato 7
	note_type 3, 2, 6
	octave 2
	note A#, 8
	note A#, 2
	rest 2
	note A#, 2
	rest 2
	note A#, 8
	note F_, 2
	rest 2
	note F_, 2
	rest 2
	note A#, 8
	note A#, 6
	staccato -1
	volume_envelope 3, 6
	octave 3
	note C_, 1
	note C#, 1
	volume_envelope 2, 6
	note D_, 8
	staccato 7
	octave 2
	note F_, 8
	octave 3
	note C_, 8
	note C_, 2
	rest 2
	note C_, 2
	rest 2
	note C_, 8
	octave 2
	note F_, 2
	rest 2
	note F_, 2
	rest 2
	octave 3
	note C_, 8
	octave 2
	note G_, 6
	staccato -1
	volume_envelope 3, 6
	note A#, 1
	note B_, 1
	volume_envelope 2, 6
	octave 3
	note C_, 12
	rest 4
	note D_, 12
	note F_, 12
	note A_, 8
	note A#, 12
	note G_, 12
	note D#, 8
	note F_, 16
	rest 8
	staccato 6
	note F_, 4
	note F_, 4
	octave 2
	note F_, 8
	note F_, 8
	note F_, 4
	note G_, 4
	note A_, 4
	octave 3
	note F_, 4
.mainloop:
	staccato -1
	vibrato 15, 2, 4
	note_type 6, 1, -5
	octave 4
	note A#, 4
	octave 5
	note C_, 4
	note D_, 6
	rest 2
	note D#, 10
	rest 2
	note D_, 2
	note D#, 2
	note F_, 4
	octave 4
	note A_, 4
	note A#, 4
	octave 5
	note C_, 4
	octave 4
	note A#, 12
	rest 4
	octave 5
	note D#, 12
	note F_, 4
	note G_, 4
	rest 1
	note_type 3, 2, -5
	note C#, 1
	volume_envelope 2, -6
	note D_, 1
	note_type 6, 1, -5
	note D#, 6
	note D_, 4
	note_type 12, 1, -5
	note C_, 12
	note_type 6, 2, -2
	octave 4
	note A_, 1
	octave 5
	note C_, 1
	note D#, 1
	note F_, 1
	note A_, 1
	octave 6
	note C_, 1
	note D#, 1
	note F_, 1
	note_type 6, 1, -5
	octave 4
	note A#, 4
	octave 5
	note C_, 4
	note D_, 6
	rest 2
	note D#, 10
	rest 2
	note F_, 2
	note D#, 2
	note F_, 4
	rest 1
	note_type 3, 2, -5
	note G#, 1
	volume_envelope 2, -6
	note A_, 1
	note_type 6, 1, -5
	note A#, 6
	note A_, 4
	note G_, 10
	rest 2
	note C_, 2
	note D#, 2
	note G_, 4
	rest 1
	note_type 3, 2, -5
	note C#, 1
	volume_envelope 2, -6
	note D_, 1
	note_type 6, 1, -5
	note D#, 4
	note F_, 1
	note D#, 1
	note D_, 4
	note C_, 12
	octave 4
	note A#, 2
	rest 2
	octave 4
	note A#, 16
	volume_envelope 2, 6
	octave 3
	note F_, 6
	volume_envelope 3, 6
	note F_, 5
	note_type 3, 3, 2
	octave 5
	note F_, 1
	volume_envelope 2, 2
	note F#, 1
	note_type 6, 1, 2
	note G_, 2
	note A_, 1
	rest 1
	note A#, 10
	rest 1
	volume_envelope 3, 2
	note A#, 1
	staccato 13
	volume_envelope 1, 2
	note A_, 2
	note G_, 2
	note F_, 4
	note D#, 4
	note F_, 4
	note D_, 4
	staccato -1
	note D#, 16
	volume_envelope 2, 5
	octave 3
	note A#, 4
	volume_envelope 3, 5
	note A#, 4
	note_type 3, 3, 2
	rest 7
	octave 5
	note F_, 1
	volume_envelope 2, 2
	note E_, 1
	volume_envelope 1, 2
	note D#, 3
	note_type 6, 1, 2
	note D_, 2
	note C_, 6
	rest 2
	staccato 13
	note C_, 4
	note D_, 4
	note D#, 4
	note F_, 4
	note G_, 4
	note D#, 4
	staccato -1
	note_type 12, 1, 2
	note D_, 10
	note_type 3, 2, 5
	octave 4
	note D#, 4
	volume_envelope 3, 5
	note D#, 2
	volume_envelope 3, -4
	note A#, 1
	volume_envelope 2, -4
	note B_, 1
	note_type 6, 1, -4
	octave 5
	note C_, 4
	note D_, 2
	note C_, 2
	octave 4
	note A#, 10
	rest 2
	note A#, 2
	octave 5
	note C_, 2
	note D_, 4
	octave 4
	note A_, 4
	note A#, 4
	octave 5
	note C_, 4
	octave 4
	note A#, 10
	note_type 3, 3, -4
	rest 3
	note A#, 1
	volume_envelope 2, -4
	note B_, 1
	volume_envelope 1, -4
	octave 5
	note C_, 3
	note_type 6, 1, -4
	note D_, 2
	note D#, 4
	octave 4
	note A#, 4
	octave 5
	note C_, 4
	note D_, 4
	note C_, 16
	rest 7
	octave 4
	note A_, 1
	note A#, 8
	note_type 12, 1, -4
	note A_, 12
	note_type 6, 2, 6
	note C_, 1
	volume_envelope 3, 6
	note C_, 1
	rest 2
	volume_envelope 2, 6
	note F_, 1
	volume_envelope 3, 6
	note F_, 1
	rest 2
	sound_jump .mainloop

Music_Route53_Ch4:
	toggle_noise 4
.mainloop:
	drum_speed 6
	sound_call .sub1
	sound_call .sub1
	sound_call .sub2
	sound_call .sub2
.loop1:
	sound_call .sub1
	sound_call .sub1
	sound_call .sub1
	sound_call .sub2
	sound_loop 2, .loop1
.loop2:
	sound_call .sub2
	sound_call .sub1
	sound_loop 2, .loop2
	sound_jump .mainloop

.sub1:
	drum_note 3, 4
	drum_note 3, 8
	drum_note 2, 2
	drum_note 2, 2
	drum_note 3, 4
	drum_note 3, 4
	drum_note 2, 1
	drum_note 2, 1
	drum_note 2, 1
	drum_note 2, 1
	drum_note 2, 1
	drum_note 2, 1
	drum_note 2, 1
	drum_note 2, 1
	sound_ret
.sub2:
	drum_note 12, 16
	drum_note 2, 2
	drum_note 2, 2
	drum_note 2, 2
	drum_note 2, 2
	drum_note 2, 2
	drum_note 2, 2
	drum_note 2, 2
	drum_note 2, 2
	sound_ret
